/* XPM */
static char * gamma_xpm[] = {
"22 27 2 1",
" 	c None",
".	c #ABABAB",
" .....................",
"   ...................",
"    .....          ...",
"     ....           ..",
"     ....            .",
"     ....            .",
"     ....             ",
"     ....             ",
"     ....             ",
"     ....             ",
"     ....             ",
"     ....             ",
"     ....             ",
"     ....             ",
"     ....             ",
"     ....             ",
"     ....             ",
"     ....             ",
"     ....             ",
"     ....             ",
"     ....             ",
"     ....             ",
"     ....             ",
"     ....             ",
"    ......            ",
"  ..........          ",
"                      "};
