#define keyboard_width 16
#define keyboard_height 16
static unsigned short keyboard_bits[] = {
   0x0000, 0x0000, 0x0000, 0x0000, 0x0000, 0xeeef, 0xeeef, 0xeeef, 0x0000,
   0xf777, 0xf777, 0xf777, 0x0000, 0xeeef, 0xeeef, 0xeeef };
